<?xml version="1.0" encoding="UTF-8" standalone="no" ?>
<!DOCTYPE svg PUBLIC "-//W3C//DTD SVG 1.1//EN" "http://www.w3.org/Graphics/SVG/1.1/DTD/svg11.dtd">
<svg xmlns="http://www.w3.org/2000/svg" xmlns:xlink="http://www.w3.org/1999/xlink" version="1.1" width="1080" height="1080" viewBox="0 0 1080 1080" xml:space="preserve">
<desc>Created with Fabric.js 5.2.4</desc>
<defs>
</defs>
<rect x="0" y="0" width="100%" height="100%" fill="transparent"></rect>
<g transform="matrix(1 0 0 1 540 540)" id="85989205-2397-4986-aa7e-d4b2d60f1a3f"  >
<rect style="stroke: none; stroke-width: 1; stroke-dasharray: none; stroke-linecap: butt; stroke-dashoffset: 0; stroke-linejoin: miter; stroke-miterlimit: 4; fill: rgb(255,255,255); fill-rule: nonzero; opacity: 1; visibility: hidden;" vector-effect="non-scaling-stroke"  x="-540" y="-540" rx="0" ry="0" width="1080" height="1080" />
</g>
<g transform="matrix(Infinity NaN NaN Infinity 0 0)" id="5ab9f18a-0421-4f87-97e2-57ed85c6347f"  >
</g>
<g transform="matrix(4.3 0 0 3.61 522.11 540)"  >
<g style="opacity: 1;"   >
		<g transform="matrix(0.13 0 0 -0.13 78.86 -46.73)"  >
<path style="stroke: none; stroke-width: 1; stroke-dasharray: none; stroke-linecap: butt; stroke-dashoffset: 0; stroke-linejoin: miter; stroke-miterlimit: 4; fill: rgb(226,0,114); fill-rule: nonzero; opacity: 1;" vector-effect="non-scaling-stroke"  transform=" translate(-2091.42, -1850.49)" d="M 2067 1893 C 2051 1878 2061 1850 2085 1844 C 2111 1838 2117 1826 2101 1815 C 2096 1812 2089 1814 2085 1820 C 2082 1825 2072 1830 2063 1830 C 2050 1830 2050 1827 2060 1814 C 2080 1791 2124 1800 2128 1827 C 2131 1844 2125 1851 2106 1856 C 2092 1859 2080 1866 2080 1871 C 2080 1884 2104 1882 2118 1868 C 2127 1859 2130 1860 2130 1872 C 2130 1894 2083 1910 2067 1893 z" stroke-linecap="round" />
</g>
		<g transform="matrix(0.13 0 0 -0.13 66.63 -45.29)"  >
<path style="stroke: none; stroke-width: 1; stroke-dasharray: none; stroke-linecap: butt; stroke-dashoffset: 0; stroke-linejoin: miter; stroke-miterlimit: 4; fill: rgb(226,0,114); fill-rule: nonzero; opacity: 1;" vector-effect="non-scaling-stroke"  transform=" translate(-1999.76, -1839.67)" d="M 1985 1848 C 1992 1805 2005 1781 2015 1792 C 2024 1801 1999 1890 1988 1890 C 1982 1890 1981 1873 1985 1848 z" stroke-linecap="round" />
</g>
		<g transform="matrix(0.13 0 0 -0.13 94.95 -42.67)"  >
<path style="stroke: none; stroke-width: 1; stroke-dasharray: none; stroke-linecap: butt; stroke-dashoffset: 0; stroke-linejoin: miter; stroke-miterlimit: 4; fill: rgb(226,0,114); fill-rule: nonzero; opacity: 1;" vector-effect="non-scaling-stroke"  transform=" translate(-2212.15, -1820)" d="M 2178 1837 C 2158 1789 2156 1780 2169 1780 C 2174 1780 2182 1789 2185 1800 C 2190 1816 2195 1818 2211 1810 C 2226 1801 2228 1795 2220 1780 C 2212 1765 2212 1760 2222 1760 C 2239 1760 2273 1841 2261 1853 C 2256 1858 2249 1854 2245 1841 C 2238 1818 2232 1816 2211 1829 C 2199 1836 2199 1842 2208 1853 C 2219 1866 2215 1880 2201 1880 C 2198 1880 2187 1861 2178 1837 z" stroke-linecap="round" />
</g>
		<g transform="matrix(0.13 0 0 -0.13 -73 -3.67)"  >
<path style="stroke: none; stroke-width: 1; stroke-dasharray: none; stroke-linecap: butt; stroke-dashoffset: 0; stroke-linejoin: miter; stroke-miterlimit: 4; fill: rgb(226,0,114); fill-rule: nonzero; opacity: 1;" vector-effect="non-scaling-stroke"  transform=" translate(-952.5, -1527.5)" d="M 670 1528 L 670 1205 L 951 1207 L 1232 1209 L 1233 1285 L 1235 1360 L 1055 1360 L 875 1360 L 875 1410 L 875 1460 L 1022 1460 L 1170 1460 L 1160 1486 C 1154 1500 1150 1534 1150 1561 L 1150 1610 L 1013 1610 L 875 1610 L 875 1655 L 875 1700 L 1036 1700 C 1226 1700 1230 1702 1230 1793 L 1230 1850 L 950 1850 L 670 1850 L 670 1528 z M 1180 1795 C 1186 1787 1189 1772 1185 1761 C 1180 1743 1168 1742 1029 1738 C 885 1735 877 1734 859 1711 C 832 1678 834 1619 863 1592 C 883 1573 899 1570 995 1568 L 1105 1565 L 1108 1533 L 1111 1500 L 1002 1500 C 907 1500 889 1497 866 1479 C 844 1462 840 1450 840 1411 C 840 1332 853 1326 1034 1320 L 1185 1315 L 1188 1283 L 1191 1250 L 951 1250 L 710 1250 L 710 1523 C 710 1674 713 1800 717 1803 C 720 1807 823 1810 945 1810 C 1127 1810 1170 1807 1180 1795 z" stroke-linecap="round" />
</g>
		<g transform="matrix(0.13 0 0 -0.13 56.28 -39.26)"  >
<path style="stroke: none; stroke-width: 1; stroke-dasharray: none; stroke-linecap: butt; stroke-dashoffset: 0; stroke-linejoin: miter; stroke-miterlimit: 4; fill: rgb(226,0,114); fill-rule: nonzero; opacity: 1;" vector-effect="non-scaling-stroke"  transform=" translate(-1922.11, -1794.45)" d="M 1880 1833 C 1880 1798 1893 1740 1900 1740 C 1904 1740 1910 1750 1913 1761 C 1917 1777 1924 1781 1939 1777 C 1975 1768 1972 1787 1933 1819 C 1890 1855 1880 1857 1880 1833 z" stroke-linecap="round" />
</g>
		<g transform="matrix(0.13 0 0 -0.13 40.47 -30.92)"  >
<path style="stroke: none; stroke-width: 1; stroke-dasharray: none; stroke-linecap: butt; stroke-dashoffset: 0; stroke-linejoin: miter; stroke-miterlimit: 4; fill: rgb(226,0,114); fill-rule: nonzero; opacity: 1;" vector-effect="non-scaling-stroke"  transform=" translate(-1803.5, -1731.87)" d="M 1781 1764 L 1760 1737 L 1797 1704 C 1820 1684 1839 1675 1844 1681 C 1850 1686 1847 1695 1835 1703 C 1823 1713 1821 1719 1828 1724 C 1835 1728 1840 1738 1840 1747 C 1840 1761 1837 1761 1820 1745 C 1794 1722 1781 1734 1804 1759 C 1814 1770 1817 1780 1811 1784 C 1806 1787 1792 1778 1781 1764 z" stroke-linecap="round" />
</g>
		<g transform="matrix(0.13 0 0 -0.13 109.88 -31.99)"  >
<path style="stroke: none; stroke-width: 1; stroke-dasharray: none; stroke-linecap: butt; stroke-dashoffset: 0; stroke-linejoin: miter; stroke-miterlimit: 4; fill: rgb(226,0,114); fill-rule: nonzero; opacity: 1;" vector-effect="non-scaling-stroke"  transform=" translate(-2324.12, -1739.93)" d="M 2290 1770 C 2265 1745 2265 1728 2288 1707 C 2315 1683 2347 1686 2366 1715 C 2381 1738 2381 1742 2366 1765 C 2346 1795 2317 1797 2290 1770 z M 2348 1758 C 2363 1743 2345 1710 2320 1710 C 2295 1710 2287 1725 2300 1750 C 2312 1772 2330 1776 2348 1758 z" stroke-linecap="round" />
</g>
		<g transform="matrix(0.13 0 0 -0.13 -17.93 -7.26)"  >
<path style="stroke: none; stroke-width: 1; stroke-dasharray: none; stroke-linecap: butt; stroke-dashoffset: 0; stroke-linejoin: miter; stroke-miterlimit: 4; fill: rgb(226,0,114); fill-rule: nonzero; opacity: 1;" vector-effect="non-scaling-stroke"  transform=" translate(-1365.56, -1554.48)" d="M 1300 1744 C 1130 1670 1142 1422 1319 1362 C 1338 1355 1365 1350 1379 1350 L 1405 1350 L 1402 1435 C 1399 1511 1396 1520 1380 1520 C 1355 1520 1339 1550 1351 1573 C 1364 1596 1397 1595 1410 1571 C 1415 1560 1420 1507 1420 1453 L 1420 1355 L 1469 1355 L 1518 1355 L 1480 1390 C 1437 1429 1423 1475 1434 1541 C 1443 1595 1465 1627 1513 1651 L 1552 1671 L 1529 1697 C 1476 1755 1373 1776 1300 1744 z M 1450 1705 C 1487 1686 1487 1681 1451 1646 C 1428 1624 1416 1619 1395 1624 C 1375 1629 1363 1624 1340 1601 C 1302 1564 1303 1549 1340 1507 C 1362 1482 1370 1462 1370 1436 C 1370 1403 1368 1400 1340 1400 C 1300 1400 1236 1462 1221 1516 C 1186 1645 1333 1766 1450 1705 z" stroke-linecap="round" />
</g>
		<g transform="matrix(0.13 0 0 -0.13 119.35 -16.93)"  >
<path style="stroke: none; stroke-width: 1; stroke-dasharray: none; stroke-linecap: butt; stroke-dashoffset: 0; stroke-linejoin: miter; stroke-miterlimit: 4; fill: rgb(226,0,114); fill-rule: nonzero; opacity: 1;" vector-effect="non-scaling-stroke"  transform=" translate(-2395.14, -1626.97)" d="M 2378 1663 C 2357 1654 2340 1643 2340 1639 C 2340 1628 2343 1628 2375 1640 L 2401 1650 L 2375 1616 C 2361 1597 2353 1579 2358 1576 C 2369 1570 2429 1588 2444 1601 C 2460 1616 2443 1622 2420 1610 C 2390 1594 2386 1602 2410 1633 C 2430 1658 2436 1681 2423 1679 C 2418 1678 2398 1671 2378 1663 z" stroke-linecap="round" />
</g>
		<g transform="matrix(0.13 0 0 -0.13 23 12.04)"  >
<path style="stroke: none; stroke-width: 1; stroke-dasharray: none; stroke-linecap: butt; stroke-dashoffset: 0; stroke-linejoin: miter; stroke-miterlimit: 4; fill: rgb(226,0,114); fill-rule: nonzero; opacity: 1;" vector-effect="non-scaling-stroke"  transform=" translate(-1672.5, -1409.7)" d="M 1565 1645 C 1543 1637 1510 1615 1493 1596 C 1465 1566 1460 1553 1460 1513 C 1460 1420 1500 1385 1639 1350 C 1736 1326 1761 1310 1740 1285 C 1725 1267 1630 1264 1612 1282 C 1605 1289 1600 1302 1600 1312 C 1600 1328 1591 1330 1525 1330 L 1450 1330 L 1450 1301 C 1450 1264 1486 1211 1529 1186 C 1573 1160 1719 1152 1786 1170 C 1841 1186 1890 1231 1890 1268 L 1890 1294 L 1858 1263 C 1804 1212 1766 1198 1681 1198 C 1598 1199 1557 1210 1523 1242 C 1468 1294 1525 1308 1592 1260 C 1649 1218 1710 1218 1751 1259 C 1767 1275 1780 1295 1780 1302 C 1780 1332 1725 1368 1655 1385 C 1575 1405 1554 1414 1523 1443 C 1490 1472 1491 1542 1524 1575 C 1582 1633 1758 1636 1818 1579 C 1864 1537 1814 1526 1756 1565 C 1701 1602 1640 1600 1606 1559 C 1574 1522 1574 1518 1603 1485 C 1619 1466 1650 1453 1720 1434 C 1771 1421 1828 1399 1845 1386 C 1900 1345 1902 1345 1887 1382 C 1872 1419 1817 1455 1761 1465 C 1669 1481 1620 1500 1620 1521 C 1620 1566 1723 1569 1740 1524 C 1749 1502 1755 1500 1821 1500 L 1893 1500 L 1887 1538 C 1879 1584 1828 1634 1773 1649 C 1720 1664 1613 1662 1565 1645 z" stroke-linecap="round" />
</g>
		<g transform="matrix(0.13 0 0 -0.13 82 12.33)"  >
<path style="stroke: none; stroke-width: 1; stroke-dasharray: none; stroke-linecap: butt; stroke-dashoffset: 0; stroke-linejoin: miter; stroke-miterlimit: 4; fill: rgb(226,0,114); fill-rule: nonzero; opacity: 1;" vector-effect="non-scaling-stroke"  transform=" translate(-2115, -1407.5)" d="M 1901 1525 C 1901 1454 1905 1386 1909 1376 C 1923 1339 1940 1410 1938 1500 C 1937 1547 1939 1591 1943 1598 C 1955 1617 2280 1615 2280 1596 C 2280 1585 2256 1581 2169 1578 C 2067 1575 2057 1573 2039 1551 C 2013 1519 2015 1484 2045 1455 C 2066 1433 2078 1430 2142 1430 C 2208 1430 2252 1419 2239 1406 C 2237 1403 2198 1400 2153 1399 C 2083 1397 2068 1394 2046 1373 C 2012 1342 2012 1298 2045 1265 C 2067 1242 2076 1240 2174 1240 C 2278 1240 2303 1233 2276 1211 C 2267 1203 2213 1200 2109 1202 L 1956 1205 L 1934 1243 C 1914 1279 1912 1280 1906 1258 C 1903 1245 1900 1218 1900 1198 L 1900 1160 L 2115 1160 L 2330 1160 L 2330 1220 L 2330 1280 L 2195 1280 L 2060 1280 L 2060 1321 L 2060 1361 L 2173 1359 L 2285 1357 L 2288 1414 L 2291 1470 L 2175 1470 L 2060 1470 L 2060 1505 L 2060 1541 L 2188 1539 C 2258 1539 2316 1541 2318 1544 C 2319 1547 2320 1572 2320 1600 L 2320 1649 L 2110 1652 L 1900 1655 L 1901 1525 z" stroke-linecap="round" />
</g>
</g>
</g>
</svg>