 <svg version="1.0" xmlns="http://www.w3.org/2000/svg"  width="300.000000pt" height="300.000000pt" viewBox="0 0 300.000000 300.000000"  preserveAspectRatio="xMidYMid meet">  <g transform="translate(0.000000,300.000000) scale(0.100000,-0.100000)" fill="#000000" stroke="none"> <path d="M2067 1893 c-16 -15 -6 -43 18 -49 26 -6 32 -18 16 -29 -5 -3 -12 -1 -16 5 -3 5 -13 10 -22 10 -13 0 -13 -3 -3 -16 20 -23 64 -14 68 13 3 17 -3 24 -22 29 -14 3 -26 10 -26 15 0 13 24 11 38 -3 9 -9 12 -8 12 4 0 22 -47 38 -63 21z"/> <path d="M1985 1848 c7 -43 20 -67 30 -56 9 9 -16 98 -27 98 -6 0 -7 -17 -3 -42z"/> <path d="M2178 1837 c-20 -48 -22 -57 -9 -57 5 0 13 9 16 20 5 16 10 18 26 10 15 -9 17 -15 9 -30 -8 -15 -8 -20 2 -20 17 0 51 81 39 93 -5 5 -12 1 -16 -12 -7 -23 -13 -25 -34 -12 -12 7 -12 13 -3 24 11 13 7 27 -7 27 -3 0 -14 -19 -23 -43z"/> <path d="M670 1528 l0 -323 281 2 281 2 1 76 2 75 -180 0 -180 0 0 50 0 50 147 0 148 0 -10 26 c-6 14 -10 48 -10 75 l0 49 -137 0 -138 0 0 45 0 45 161 0 c190 0 194 2 194 93 l0 57 -280 0 -280 0 0 -322z m510 267 c6 -8 9 -23 5 -34 -5 -18 -17 -19 -156 -23 -144 -3 -152 -4 -170 -27 -27 -33 -25 -92 4 -119 20 -19 36 -22 132 -24 l110 -3 3 -32 3 -33 -109 0 c-95 0 -113 -3 -136 -21 -22 -17 -26 -29 -26 -68 0 -79 13 -85 194 -91 l151 -5 3 -32 3 -33 -240 0 -241 0 0 273 c0 151 3 277 7 280 3 4 106 7 228 7 182 0 225 -3 235 -15z"/> <path d="M1880 1833 c0 -35 13 -93 20 -93 4 0 10 10 13 21 4 16 11 20 26 16 36 -9 33 10 -6 42 -43 36 -53 38 -53 14z"/> <path d="M1781 1764 l-21 -27 37 -33 c23 -20 42 -29 47 -23 6 5 3 14 -9 22 -12 10 -14 16 -7 21 7 4 12 14 12 23 0 14 -3 14 -20 -2 -26 -23 -39 -11 -16 14 10 11 13 21 7 25 -5 3 -19 -6 -30 -20z"/> <path d="M2290 1770 c-25 -25 -25 -42 -2 -63 27 -24 59 -21 78 8 15 23 15 27 0 50 -20 30 -49 32 -76 5z m58 -12 c15 -15 -3 -48 -28 -48 -25 0 -33 15 -20 40 12 22 30 26 48 8z"/> <path d="M1300 1744 c-170 -74 -158 -322 19 -382 19 -7 46 -12 60 -12 l26 0 -3 85 c-3 76 -6 85 -22 85 -25 0 -41 30 -29 53 13 23 46 22 59 -2 5 -11 10 -64 10 -118 l0 -98 49 0 49 0 -38 35 c-43 39 -57 85 -46 151 9 54 31 86 79 110 l39 20 -23 26 c-53 58 -156 79 -229 47z m150 -39 c37 -19 37 -24 1 -59 -23 -22 -35 -27 -56 -22 -20 5 -32 0 -55 -23 -38 -37 -37 -52 0 -94 22 -25 30 -45 30 -71 0 -33 -2 -36 -30 -36 -40 0 -104 62 -119 116 -35 129 112 250 229 189z"/> <path d="M2378 1663 c-21 -9 -38 -20 -38 -24 0 -11 3 -11 35 1 l26 10 -26 -34 c-14 -19 -22 -37 -17 -40 11 -6 71 12 86 25 16 15 -1 21 -24 9 -30 -16 -34 -8 -10 23 20 25 26 48 13 46 -5 -1 -25 -8 -45 -16z"/> <path d="M1565 1645 c-22 -8 -55 -30 -72 -49 -28 -30 -33 -43 -33 -83 0 -93 40 -128 179 -163 97 -24 122 -40 101 -65 -15 -18 -110 -21 -128 -3 -7 7 -12 20 -12 30 0 16 -9 18 -75 18 l-75 0 0 -29 c0 -37 36 -90 79 -115 44 -26 190 -34 257 -16 55 16 104 61 104 98 l0 26 -32 -31 c-54 -51 -92 -65 -177 -65 -83 1 -124 12 -158 44 -55 52 2 66 69 18 57 -42 118 -42 159 -1 16 16 29 36 29 43 0 30 -55 66 -125 83 -80 20 -101 29 -132 58 -33 29 -32 99 1 132 58 58 234 61 294 4 46 -42 -4 -53 -62 -14 -55 37 -116 35 -150 -6 -32 -37 -32 -41 -3 -74 16 -19 47 -32 117 -51 51 -13 108 -35 125 -48 55 -41 57 -41 42 -4 -15 37 -70 73 -126 83 -92 16 -141 35 -141 56 0 45 103 48 120 3 9 -22 15 -24 81 -24 l72 0 -6 38 c-8 46 -59 96 -114 111 -53 15 -160 13 -208 -4z"/> <path d="M1901 1525 c0 -71 4 -139 8 -149 14 -37 31 34 29 124 -1 47 1 91 5 98 12 19 337 17 337 -2 0 -11 -24 -15 -111 -18 -102 -3 -112 -5 -130 -27 -26 -32 -24 -67 6 -96 21 -22 33 -25 97 -25 66 0 110 -11 97 -24 -2 -3 -41 -6 -86 -7 -70 -2 -85 -5 -107 -26 -34 -31 -34 -75 -1 -108 22 -23 31 -25 129 -25 104 0 129 -7 102 -29 -9 -8 -63 -11 -167 -9 l-153 3 -22 38 c-20 36 -22 37 -28 15 -3 -13 -6 -40 -6 -60 l0 -38 215 0 215 0 0 60 0 60 -135 0 -135 0 0 41 0 40 113 -2 112 -2 3 57 3 56 -116 0 -115 0 0 35 0 36 128 -2 c70 0 128 2 130 5 1 3 2 28 2 56 l0 49 -210 3 -210 3 1 -130z"/> </g> </svg> 